<svg xmlns="http://www.w3.org/2000/svg" width="128" height="128" viewBox="0 0 128 128"><rect x="8" y="8" width="112" height="112" rx="26" fill="#dc2626"/><path d="M38 24h37l17 17v63H38z" fill="#fff"/><path d="M75 24v17h17" fill="#fecaca"/><path d="M49 54h31M49 65h31M49 76h22" stroke="#fca5a5" stroke-width="4" stroke-linecap="round"/><rect x="20" y="75" width="65" height="25" rx="7" fill="#991b1b"/><g fill="none" stroke="#fff" stroke-width="2.5" stroke-linejoin="round"><path d="M30 94V81h5q5 0 5 4t-5 4h-5M47 81v13h4q6 0 6-6.5T51 81zM65 94V81h10M65 87h8"/></g></svg>
